<svg width="1007" height="951" viewBox="0 0 1007 951" fill="none" xmlns="http://www.w3.org/2000/svg">
<path d="M-263.516 639.575C-238.925 652.33 -171.153 661.674 -96.7882 597.016C-3.83159 516.193 -17.1559 502.981 129.598 514.565C276.353 526.148 398.785 468.64 421.258 249.869C443.731 31.0972 429.33 -21.7609 598.107 -42.7956C766.883 -63.8303 830.156 -162.696 816.901 -234.828" stroke="#E8E1DA" stroke-width="2"/>
<path d="M-222.652 681.113C-198.062 693.867 -130.29 703.212 -55.9243 638.553C37.0322 557.731 23.7079 544.519 170.462 556.102C317.217 567.685 439.649 510.178 462.122 291.406C484.595 72.6348 470.194 19.7767 638.97 -1.258C807.747 -22.2927 871.02 -121.158 857.765 -193.29" stroke="#E8E1DA" stroke-width="2"/>
<path d="M-181.788 722.651C-157.198 735.405 -89.4258 744.749 -15.0605 680.091C77.8961 599.268 64.5718 586.057 211.326 597.64C358.081 609.223 480.513 551.715 502.986 332.944C525.459 114.172 511.058 61.3143 679.834 40.2796C848.611 19.2449 911.884 -79.6204 898.629 -151.752" stroke="#E8E1DA" stroke-width="2"/>
<path d="M-140.924 764.188C-116.334 776.943 -48.562 786.287 25.8033 721.628C118.76 640.806 105.436 627.594 252.19 639.177C398.944 650.761 521.377 593.253 543.85 374.481C566.323 155.71 551.922 102.852 720.698 81.8171C889.475 60.7824 952.747 -38.083 939.493 -110.215" stroke="#E8E1DA" stroke-width="2"/>
<path d="M-100.06 805.726C-75.4701 818.48 -7.69816 827.824 66.6671 763.166C159.624 682.343 146.299 669.132 293.054 680.715C439.808 692.298 562.241 634.79 584.713 416.019C607.186 197.248 592.785 144.389 761.562 123.355C930.338 102.32 993.611 3.45463 980.357 -68.6774" stroke="#E8E1DA" stroke-width="2"/>
</svg>
