<svg width="127" height="30" viewBox="0 0 127 30" fill="none" xmlns="http://www.w3.org/2000/svg">
<path fill-rule="evenodd" clip-rule="evenodd" d="M49.5825 21.6855L47.8682 29.6557H43.9252L50.4397 0.770734H55.1105L61.2392 29.6557H57.2534L55.5819 21.6855H49.5825ZM55.1105 18.4712L53.7819 11.5703C53.3962 9.5988 53.0104 7.02874 52.7112 4.97083H52.539C52.2397 7.07088 51.8097 9.72738 51.4254 11.5703L50.0539 18.4712H55.1105ZM76.2896 0V24.2992C76.2896 25.8856 76.3753 28.2 76.4603 29.6564H72.9895L72.7323 27.1285H72.6038C71.918 28.585 70.3323 30 68.233 30C64.3757 30 62.0185 25.7992 62.0185 19.329C62.0185 11.9574 65.1465 8.48592 68.4472 8.48592C70.118 8.48592 71.4466 9.25808 72.1752 10.8431H72.2609V0H76.2896ZM72.2602 16.7568C72.2602 16.3718 72.2602 15.9004 72.2173 15.4704C72.003 13.5853 70.9316 11.9567 69.4751 11.9567C66.9458 11.9567 66.0893 15.4704 66.0893 19.3283C66.0893 23.6141 67.2036 26.6135 69.3465 26.6135C70.2466 26.6135 71.4459 26.1421 72.1316 23.657C72.2173 23.3141 72.2602 22.7991 72.2602 22.3291V16.7568ZM85.8855 29.9993C81.729 29.9993 78.7282 26.4421 78.7282 19.2862C78.7282 11.6996 82.2847 8.48521 86.0991 8.48521C90.2135 8.48521 93.17 12.171 93.17 19.1997C93.17 27.4714 89.0984 29.9993 85.9277 29.9993H85.8855ZM86.0134 26.8285C88.4984 26.8285 89.0563 22.4141 89.0563 19.2433C89.0563 16.114 88.4991 11.6574 85.9284 11.6574C83.2705 11.6574 82.7569 16.114 82.7569 19.2433C82.7569 22.7141 83.3569 26.8285 85.9712 26.8285H86.0134ZM95.5986 0H99.6266V11.1853H99.7123C100.784 9.30022 102.241 8.48521 104.084 8.48521C107.64 8.48521 109.87 12.5139 109.87 18.8997C109.87 26.3563 106.827 29.9993 103.398 29.9993C101.341 29.9993 100.184 28.8843 99.283 27.0414H99.113L98.898 29.6557H95.4272C95.5129 28.2421 95.5986 25.8849 95.5986 24.2984V0ZM99.6266 22.2841C99.6266 22.757 99.6694 23.2284 99.798 23.5706C100.44 26.0999 101.684 26.6135 102.497 26.6135C104.897 26.6135 105.797 23.4427 105.797 19.1569C105.797 15.1711 104.855 11.9567 102.454 11.9567C101.126 11.9567 100.054 13.5425 99.7544 15.0425C99.6687 15.4711 99.6258 16.029 99.6258 16.4568V22.2841H99.6266ZM115.814 20.0562C115.857 25.4135 118.171 26.7414 120.613 26.7414C122.071 26.7414 123.314 26.3992 124.214 25.9699L124.814 28.8843C123.571 29.5271 121.685 29.8707 119.842 29.8707C114.614 29.8707 111.871 25.9278 111.871 19.499C111.871 12.6846 114.999 8.48449 119.328 8.48449C123.656 8.48449 125.671 12.6417 125.671 17.8711C125.671 18.899 125.627 19.5426 125.585 20.0991L115.814 20.0562ZM121.856 17.1854C121.899 13.4996 120.613 11.5288 119.028 11.5288C116.928 11.5288 115.985 14.5718 115.857 17.1854H121.856Z" fill="#9B948E"/>
<path fill-rule="evenodd" clip-rule="evenodd" d="M21.2218 0.8479H33.2557V29.6557L21.2218 0.8479ZM12.7445 0.8479H0.702057V29.6557L12.7445 0.8479ZM16.9839 11.4646L24.6512 29.6557H19.6268L17.3339 23.862H11.7216L16.9839 11.4646Z" fill="#9B948E"/>
<path fill-rule="evenodd" clip-rule="evenodd" d="M125.329 8.43165C125.449 8.43221 125.569 8.45667 125.68 8.50363C125.791 8.55059 125.892 8.61911 125.977 8.70525C126.061 8.79138 126.128 8.89342 126.173 9.00547C126.218 9.11753 126.24 9.23738 126.239 9.3581C126.239 9.88097 125.835 10.2888 125.324 10.2888C124.818 10.2888 124.406 9.88169 124.406 9.3581C124.405 9.23692 124.428 9.11679 124.474 9.0046C124.52 8.89242 124.587 8.79037 124.673 8.70432C124.758 8.61826 124.86 8.54988 124.971 8.50309C125.083 8.4563 125.203 8.43202 125.324 8.43165H125.329ZM125.324 8.57523C124.917 8.57523 124.583 8.92595 124.583 9.3581C124.583 9.79883 124.917 10.1446 125.329 10.1446C125.74 10.1488 126.069 9.79883 126.069 9.36239C126.069 8.92595 125.74 8.57523 125.329 8.57523H125.324ZM125.151 9.89812H124.987V8.86381C125.074 8.85166 125.156 8.8388 125.28 8.8388C125.436 8.8388 125.539 8.87238 125.601 8.91738C125.663 8.96238 125.696 9.03238 125.696 9.13167C125.696 9.26739 125.605 9.35024 125.494 9.3831V9.39096C125.584 9.40739 125.646 9.49025 125.666 9.64239C125.691 9.80311 125.716 9.86454 125.733 9.89812H125.56C125.535 9.86454 125.511 9.77025 125.49 9.63453C125.465 9.50239 125.399 9.4531 125.267 9.4531H125.152V9.89812H125.151ZM125.151 9.32524H125.271C125.406 9.32524 125.523 9.27596 125.523 9.1481C125.523 9.05738 125.456 8.96666 125.271 8.96666C125.218 8.96666 125.18 8.97095 125.151 8.97524V9.32524ZM34.8421 0.8479C34.9629 0.848456 35.0823 0.872916 35.1935 0.919875C35.3048 0.966833 35.4056 1.03536 35.4902 1.12149C35.5748 1.20763 35.6415 1.30967 35.6865 1.42172C35.7314 1.53377 35.7538 1.65362 35.7522 1.77435C35.7522 2.29722 35.3486 2.70509 34.8379 2.70509C34.3314 2.70509 33.9193 2.29793 33.9193 1.77435C33.9186 1.65316 33.9419 1.53304 33.9877 1.42085C34.0335 1.30866 34.101 1.20662 34.1864 1.12056C34.2717 1.0345 34.3732 0.966123 34.485 0.919335C34.5967 0.872547 34.7167 0.848274 34.8379 0.8479H34.8421ZM34.8379 0.991473C34.43 0.991473 34.0964 1.3422 34.0964 1.77435C34.0964 2.21507 34.43 2.56079 34.8421 2.56079C35.2536 2.56508 35.5836 2.21508 35.5836 1.77864C35.5836 1.3422 35.2536 0.991473 34.8421 0.991473H34.8379ZM34.665 2.31437H34.5V1.28005C34.5968 1.26399 34.6947 1.25587 34.7929 1.25577C34.9493 1.25577 35.0521 1.28791 35.1136 1.33363C35.1757 1.37863 35.2086 1.44934 35.2086 1.54791C35.2086 1.68363 35.1179 1.76649 35.0064 1.79935V1.80721C35.0972 1.82363 35.1593 1.9065 35.18 2.05936C35.2043 2.22008 35.2293 2.28151 35.2457 2.31508H35.0729C35.0479 2.28151 35.0229 2.18722 35.0029 2.0515C34.9779 1.91935 34.9121 1.87007 34.78 1.87007H34.665V2.31437ZM34.665 1.74149H34.7843C34.92 1.74149 35.0357 1.69221 35.0357 1.56434C35.0357 1.47363 34.97 1.38291 34.7843 1.38291C34.7307 1.38291 34.6936 1.3872 34.665 1.39149V1.74149Z" fill="#9B948E"/>
</svg>
